<?plantuml 1.2026.2?><svg xmlns="http://www.w3.org/2000/svg" xmlns:xlink="http://www.w3.org/1999/xlink" contentStyleType="text/css" data-diagram-type="DESCRIPTION" height="906px" preserveAspectRatio="none" style="width:1820px;height:906px;background:#FBFAF6;" version="1.1" viewBox="0 0 1820 906" width="1820px" zoomAndPan="magnify"><title>Hearthold &#8212; components &amp; communication lines</title><defs/><g><rect fill="#FBFAF6" height="906" style="stroke:none;stroke-width:1;" width="1820" x="0" y="0"/><g class="title" data-source-line="1"><text fill="#000000" font-family="sans-serif" font-size="14" font-weight="bold" lengthAdjust="spacing" textLength="352.1738" x="727.0501" y="23.5352">Hearthold &#8212; components &amp; communication lines</text></g><!--cluster home--><g class="cluster" data-qualified-name="home" data-source-line="32" id="ent0002"><path d="M1256.16,429.1483 L1441.8123,429.1483 A9,9 0 0 1 1447.8123,435.1483 L1454.8123,451.6366 L1552.16,451.6366 A6,6 0 0 1 1558.16,457.6366 L1558.16,893.2983 A6,6 0 0 1 1552.16,899.2983 L1256.16,899.2983 A6,6 0 0 1 1250.16,893.2983 L1250.16,435.1483 A6,6 0 0 1 1256.16,429.1483" fill="#F1F4EC" style="stroke:#9AA77F;stroke-width:1.5;"/><line style="stroke:#9AA77F;stroke-width:1.5;" x1="1250.16" x2="1454.8123" y1="451.6366" y2="451.6366"/><text fill="#3A4030" font-family="sans-serif" font-size="14" font-weight="bold" lengthAdjust="spacing" textLength="191.6523" x="1254.16" y="444.6834">HOME &#8212; trusted hardware</text></g><!--cluster world--><g class="cluster" data-qualified-name="world" data-source-line="44" id="ent0010"><path d="M995.16,206.9483 L1228.5204,206.9483 A9,9 0 0 1 1234.5204,212.9483 L1241.5204,229.4366 L1238.16,229.4366 A6,6 0 0 1 1244.16,235.4366 L1244.16,347.9083 A6,6 0 0 1 1238.16,353.9083 L995.16,353.9083 A6,6 0 0 1 989.16,347.9083 L989.16,212.9483 A6,6 0 0 1 995.16,206.9483" fill="#F1F4EC" style="stroke:#9AA77F;stroke-width:1.5;"/><line style="stroke:#9AA77F;stroke-width:1.5;" x1="989.16" x2="1241.5204" y1="229.4366" y2="229.4366"/><text fill="#3A4030" font-family="sans-serif" font-size="14" font-weight="bold" lengthAdjust="spacing" textLength="239.3604" x="993.16" y="222.4834">WORLD &#8212; phone &#183; browser &#183; CLI</text></g><!--cluster sov--><g class="cluster" data-qualified-name="sov" data-source-line="49" id="ent0012"><path d="M714.16,420.9083 L904.1737,420.9083 A9,9 0 0 1 910.1737,426.9083 L917.1737,443.3966 L990.16,443.3966 A6,6 0 0 1 996.16,449.3966 L996.16,561.8583 A6,6 0 0 1 990.16,567.8583 L714.16,567.8583 A6,6 0 0 1 708.16,561.8583 L708.16,426.9083 A6,6 0 0 1 714.16,420.9083" fill="#F1F4EC" style="stroke:#9AA77F;stroke-width:1.5;"/><line style="stroke:#9AA77F;stroke-width:1.5;" x1="708.16" x2="917.1737" y1="443.3966" y2="443.3966"/><text fill="#3A4030" font-family="sans-serif" font-size="14" font-weight="bold" lengthAdjust="spacing" textLength="196.0137" x="712.16" y="436.4434">Sovereign side (occasional)</text></g><!--entity Warden--><g class="entity" data-qualified-name="home.Warden" data-source-line="33" id="ent0003"><rect fill="#FFFFFF" height="79.4648" rx="6" ry="6" style="stroke:#6E7C8C;stroke-width:0.5;" width="235.4941" x="1281.42" y="464.1483"/><rect fill="#FFFFFF" height="10" style="stroke:#6E7C8C;stroke-width:0.5;" width="15" x="1496.9141" y="469.1483"/><rect fill="#FFFFFF" height="2" style="stroke:#6E7C8C;stroke-width:0.5;" width="4" x="1494.9141" y="471.1483"/><rect fill="#FFFFFF" height="2" style="stroke:#6E7C8C;stroke-width:0.5;" width="4" x="1494.9141" y="475.1483"/><text fill="#1A1A1A" font-family="sans-serif" font-size="14" font-weight="bold" lengthAdjust="spacing" textLength="53.9219" x="1367.2061" y="497.6834">Warden</text><text fill="#1A1A1A" font-family="sans-serif" font-size="14" font-style="italic" lengthAdjust="spacing" textLength="138.4619" x="1324.9361" y="514.1717">Keeper &#183; Swordsman</text><text fill="#1A1A1A" font-family="sans-serif" font-size="14" lengthAdjust="spacing" textLength="195.4941" x="1296.42" y="530.66">protects &#183; custodies &#183; derives</text></g><!--entity Cls--><g class="entity" data-qualified-name="home.Cls" data-source-line="34" id="ent0004"><rect fill="#FFFFFF" height="46.4883" rx="6" ry="6" style="stroke:#6E7C8C;stroke-width:0.5;" width="102.5078" x="1265.91" y="655.3483"/><rect fill="#FFFFFF" height="10" style="stroke:#6E7C8C;stroke-width:0.5;" width="15" x="1348.4178" y="660.3483"/><rect fill="#FFFFFF" height="2" style="stroke:#6E7C8C;stroke-width:0.5;" width="4" x="1346.4178" y="662.3483"/><rect fill="#FFFFFF" height="2" style="stroke:#6E7C8C;stroke-width:0.5;" width="4" x="1346.4178" y="666.3483"/><text fill="#1A1A1A" font-family="sans-serif" font-size="14" lengthAdjust="spacing" textLength="62.5078" x="1280.91" y="688.8834">Classifier</text></g><!--entity Ollama--><g class="entity" data-qualified-name="home.Ollama" data-source-line="35" id="ent0005"><rect fill="#FFFFFF" height="62.9766" rx="6" ry="6" style="stroke:#6E7C8C;stroke-width:0.5;" width="152.1641" x="1266.08" y="820.3183"/><rect fill="#FFFFFF" height="10" style="stroke:#6E7C8C;stroke-width:0.5;" width="15" x="1398.2441" y="825.3183"/><rect fill="#FFFFFF" height="2" style="stroke:#6E7C8C;stroke-width:0.5;" width="4" x="1396.2441" y="827.3183"/><rect fill="#FFFFFF" height="2" style="stroke:#6E7C8C;stroke-width:0.5;" width="4" x="1396.2441" y="831.3183"/><text fill="#1A1A1A" font-family="sans-serif" font-size="14" lengthAdjust="spacing" textLength="47.5029" x="1313.4106" y="853.8534">Ollama</text><text fill="#1A1A1A" font-family="sans-serif" font-size="14" font-style="italic" lengthAdjust="spacing" textLength="112.1641" x="1281.08" y="870.3417">qwen3:8b (local)</text></g><!--entity Vault--><g class="entity" data-qualified-name="home.Vault" data-source-line="36" id="ent0006"><path d="M1423.85,657.5983 C1423.85,647.5983 1483.161,647.5983 1483.161,647.5983 C1483.161,647.5983 1542.4721,647.5983 1542.4721,657.5983 L1542.4721,699.5748 C1542.4721,709.5748 1483.161,709.5748 1483.161,709.5748 C1483.161,709.5748 1423.85,709.5748 1423.85,699.5748 L1423.85,657.5983" fill="#FFF7E8" style="stroke:#C9A24B;stroke-width:0.5;"/><path d="M1423.85,657.5983 C1423.85,667.5983 1483.161,667.5983 1483.161,667.5983 C1483.161,667.5983 1542.4721,667.5983 1542.4721,657.5983" fill="none" style="stroke:#C9A24B;stroke-width:0.5;"/><text fill="#000000" font-family="sans-serif" font-size="14" lengthAdjust="spacing" textLength="81.1084" x="1442.6068" y="685.1334">Sealed vault</text><text fill="#000000" font-family="sans-serif" font-size="14" lengthAdjust="spacing" textLength="98.6221" x="1433.85" y="701.6217">+ index (local)</text></g><!--entity Emissary--><g class="entity" data-qualified-name="world.Emissary" data-source-line="45" id="ent0011"><rect fill="#FFFFFF" height="95.9531" rx="6" ry="6" style="stroke:#6E7C8C;stroke-width:0.5;" width="182.0234" x="1026.15" y="241.9483"/><rect fill="#FFFFFF" height="10" style="stroke:#6E7C8C;stroke-width:0.5;" width="15" x="1188.1734" y="246.9483"/><rect fill="#FFFFFF" height="2" style="stroke:#6E7C8C;stroke-width:0.5;" width="4" x="1186.1734" y="248.9483"/><rect fill="#FFFFFF" height="2" style="stroke:#6E7C8C;stroke-width:0.5;" width="4" x="1186.1734" y="252.9483"/><text fill="#1A1A1A" font-family="sans-serif" font-size="14" font-weight="bold" lengthAdjust="spacing" textLength="65.126" x="1079.5987" y="275.4834">Emissary</text><text fill="#1A1A1A" font-family="sans-serif" font-size="14" font-style="italic" lengthAdjust="spacing" textLength="127.5313" x="1048.3961" y="291.9717">Companion &#183; Mage</text><text fill="#1A1A1A" font-family="sans-serif" font-size="14" lengthAdjust="spacing" textLength="142.0234" x="1041.15" y="308.46">sees in &#183; projects out</text><text fill="#1A1A1A" font-family="sans-serif" font-size="14" lengthAdjust="spacing" textLength="113.4082" x="1055.4576" y="324.9483">(holds no secret)</text></g><!--entity Sovereign--><g class="entity" data-qualified-name="sov.Sovereign" data-source-line="50" id="ent0013"><rect fill="#FFFFFF" height="95.9531" rx="6" ry="6" style="stroke:#6E7C8C;stroke-width:0.5;" width="255.9199" x="724.2" y="455.9083"/><rect fill="#FFFFFF" height="10" style="stroke:#6E7C8C;stroke-width:0.5;" width="15" x="960.1199" y="460.9083"/><rect fill="#FFFFFF" height="2" style="stroke:#6E7C8C;stroke-width:0.5;" width="4" x="958.1199" y="462.9083"/><rect fill="#FFFFFF" height="2" style="stroke:#6E7C8C;stroke-width:0.5;" width="4" x="958.1199" y="466.9083"/><text fill="#1A1A1A" font-family="sans-serif" font-size="14" font-weight="bold" lengthAdjust="spacing" textLength="70.998" x="811.6609" y="489.4434">Sovereign</text><text fill="#1A1A1A" font-family="sans-serif" font-size="14" font-style="italic" lengthAdjust="spacing" textLength="79.7754" x="807.2723" y="505.9317">First Person</text><text fill="#1A1A1A" font-family="sans-serif" font-size="14" lengthAdjust="spacing" textLength="76.0566" x="769.596" y="522.42">held by the</text><text fill="#1A1A1A" font-family="sans-serif" font-size="14" font-weight="bold" lengthAdjust="spacing" textLength="44.8574" x="850.0823" y="522.42">Signet</text><text fill="#1A1A1A" font-family="sans-serif" font-size="14" lengthAdjust="spacing" textLength="25.3545" x="899.3694" y="522.42">app</text><text fill="#1A1A1A" font-family="sans-serif" font-size="14" lengthAdjust="spacing" textLength="215.9199" x="739.2" y="538.9083">decides &#183; approves (PoH) &#183; signs</text></g><!--entity Verifier--><g class="entity" data-qualified-name="Verifier" data-source-line="54" id="ent0014"><rect fill="#FFFFFF" height="79.4648" rx="6" ry="6" style="stroke:#6E7C8C;stroke-width:0.5;" width="146.791" x="423.77" y="44.4883"/><rect fill="#FFFFFF" height="10" style="stroke:#6E7C8C;stroke-width:0.5;" width="15" x="550.561" y="49.4883"/><rect fill="#FFFFFF" height="2" style="stroke:#6E7C8C;stroke-width:0.5;" width="4" x="548.561" y="51.4883"/><rect fill="#FFFFFF" height="2" style="stroke:#6E7C8C;stroke-width:0.5;" width="4" x="548.561" y="55.4883"/><text fill="#1A1A1A" font-family="sans-serif" font-size="14" font-weight="bold" lengthAdjust="spacing" textLength="53.8262" x="465.2524" y="78.0234">Verifier</text><text fill="#1A1A1A" font-family="sans-serif" font-size="14" font-style="italic" lengthAdjust="spacing" textLength="85.6064" x="449.3623" y="94.5117">relying party</text><text fill="#1A1A1A" font-family="sans-serif" font-size="14" lengthAdjust="spacing" textLength="106.791" x="438.77" y="111">requests proofs</text></g><!--entity Registry--><g class="entity" data-qualified-name="Registry" data-source-line="55" id="ent0015"><rect fill="#FFFFFF" height="79.4648" rx="6" ry="6" style="stroke:#6E7C8C;stroke-width:0.5;" width="174.4629" x="209.93" y="464.1483"/><rect fill="#FFFFFF" height="10" style="stroke:#6E7C8C;stroke-width:0.5;" width="15" x="364.3929" y="469.1483"/><rect fill="#FFFFFF" height="2" style="stroke:#6E7C8C;stroke-width:0.5;" width="4" x="362.3929" y="471.1483"/><rect fill="#FFFFFF" height="2" style="stroke:#6E7C8C;stroke-width:0.5;" width="4" x="362.3929" y="475.1483"/><text fill="#1A1A1A" font-family="sans-serif" font-size="14" font-weight="bold" lengthAdjust="spacing" textLength="59.7666" x="262.2781" y="497.6834">Registry</text><text fill="#1A1A1A" font-family="sans-serif" font-size="14" lengthAdjust="spacing" textLength="29.2236" x="238.7113" y="514.1717">ToIP</text><text fill="#1A1A1A" font-family="sans-serif" font-size="14" font-weight="bold" lengthAdjust="spacing" textLength="39.4365" x="272.3646" y="514.1717">TRQP</text><text fill="#1A1A1A" font-family="sans-serif" font-size="14" lengthAdjust="spacing" textLength="29.3809" x="316.2308" y="514.1717">v2.0</text><text fill="#1A1A1A" font-family="sans-serif" font-size="14" lengthAdjust="spacing" textLength="134.4629" x="224.93" y="530.66">over Archon groups</text></g><!--entity GK--><g class="entity" data-qualified-name="GK" data-source-line="56" id="ent0016"><path d="M735.9888,648.8986 C739.0748,639.6641 745.7517,637.6826 752.4033,645.4577 C757.3079,637.1704 763.9169,637.3425 768.685,645.5922 C773.6252,635.8338 781.2873,636.2338 786.9134,644.9141 C789.9746,637.769 797.1271,634.9655 802.4784,642.483 C806.5945,633.1281 814.8698,633.878 820.3821,640.9624 C824.8027,632.4455 830.6058,632.8308 835.7512,640.264 C840.4813,631.5395 846.3073,630.062 853.3603,637.7755 C858.8973,630.1992 867.4299,631.1003 871.9257,639.0227 C877.4876,633.638 882.3217,634.3783 886.3357,640.8966 C891.4304,631.3301 900.0726,633.0448 905.2123,640.8476 C912.1255,633.8543 918.5328,635.1408 921.8754,644.4885 C928.5687,636.3584 934.1907,638.549 938.7018,646.7385 C944.9754,638.4391 950.6562,639.3175 955.8433,647.8453 C961.3606,639.1894 969.2959,640.1461 973.0358,649.5383 C981.7382,652.9491 981.9439,657.9207 975.6861,664.0614 C983.8913,667.8114 985.0463,674.2277 977.2369,679.5782 C984.3918,684.5761 986.1386,692.4129 976.7154,696.912 C982.4457,702.0968 980.5819,708.5607 973.6196,710.9455 C969.5191,718.3822 963.2761,719.7158 957.0627,713.5097 C952.9561,722.7749 944.1998,721.8137 939.4914,714.1338 C934.1958,722.4263 928.1328,723.2511 921.8307,715.2229 C917.8437,724.0771 911.5968,723.2005 906.365,716.4572 C901.7906,726.1873 892.8614,726.284 887.5129,717.2343 C882.4154,725.2577 875.0128,724.3924 870.9763,716.1554 C866.9336,723.6317 860.8379,726.1645 854.5538,718.6032 C848.7749,728.3347 842.2277,727.8972 836.1541,718.8925 C831.5067,726.6524 823.9281,724.8881 820.56,717.5695 C815.0164,726.6604 806.6186,724.6731 801.9199,716.6493 C795.7259,723.9596 790.537,725.3362 784.9359,716.0427 C777.9837,723.3487 772.4308,722.1175 768.9847,712.6988 C764.3225,719.2117 756.5708,719.6989 752.9341,711.5743 C746.9363,721.0308 740.8611,722.2882 733.0945,713.4975 C723.6374,708.5004 725.0631,701.1628 732.4881,695.5939 C725.6902,690.93 724.5825,684.0554 732.0981,679.0541 C724.9329,673.2936 726.4907,667.2495 734.5184,663.9185 C727.543,659.1786 727.5457,652.1291 735.9888,648.8986" fill="#EEF3FA" style="stroke:#6E7C8C;stroke-width:0.5;"/><text fill="#000000" font-family="sans-serif" font-size="14" font-weight="bold" lengthAdjust="spacing" textLength="137.7236" x="783.2974" y="667.3934">Archon Gatekeeper</text><text fill="#000000" font-family="sans-serif" font-size="14" lengthAdjust="spacing" textLength="182.4375" x="760.9405" y="683.8817">flaxlap.local :4222 / :4224</text><text fill="#000000" font-family="sans-serif" font-size="14" lengthAdjust="spacing" textLength="224.4785" x="739.92" y="700.37">DID resolution + DIDComm relay</text></g><g class="entity" data-qualified-name="GMN31" data-source-line="83" id="ent0032"><path d="M6,648.9683 L6,708.2105 A6,6 0 0 0 12,714.2105 L498.3247,714.2105 A6,6 0 0 0 504.3247,708.2105 L504.3247,652.9683 L494.3247,642.9683 L267.66,642.9683 L287.63,544.0683 L259.66,642.9683 L12,642.9683 A6,6 0 0 0 6,648.9683" fill="#FEFFDD" style="stroke:#181818;stroke-width:0.5;"/><path d="M494.3247,642.9683 L494.3247,649.9683 A3,3 0 0 0 497.3247,652.9683 L504.3247,652.9683 L494.3247,642.9683" fill="#FEFFDD" style="stroke:#181818;stroke-width:0.5;"/><text fill="#000000" font-family="sans-serif" font-size="13" font-weight="bold" lengthAdjust="spacing" textLength="107.1865" x="24.1367" y="660.5366">DTG credentials</text><text fill="#000000" font-family="sans-serif" font-size="13" lengthAdjust="spacing" textLength="341.7515" x="135.4365" y="660.5366">(VRC / VMC / VIC / VPC / VEC / VWC + RCard) are the</text><text fill="#000000" font-family="sans-serif" font-size="13" lengthAdjust="spacing" textLength="441.7017" x="29.8115" y="675.8472">edges &amp; memberships of the trust graph the Registry authorizes over.</text><text fill="#000000" font-family="sans-serif" font-size="13" font-weight="bold" lengthAdjust="spacing" textLength="136.062" x="12.1873" y="691.1577">Game-of-42 bridge:</text><text fill="#000000" font-family="sans-serif" font-size="13" lengthAdjust="spacing" textLength="336.7749" x="152.3625" y="691.1577">a sealed governance board (VRC &#8594; &#954; &#8594; seal) projects</text><text fill="#000000" font-family="sans-serif" font-size="13" lengthAdjust="spacing" textLength="73.2583" x="12" y="706.4683">to a soulbis</text><text fill="#000000" font-family="sans-serif" font-size="13" font-weight="bold" lengthAdjust="spacing" textLength="55.0469" x="89.3716" y="706.4683">City Key</text><text fill="#000000" font-family="sans-serif" font-size="13" lengthAdjust="spacing" textLength="340.793" x="148.5317" y="706.4683">/ constellation node &#8212; the registry, rendered visually.</text></g><!--link Warden to Cls--><g class="link" data-entity-1="ent0003" data-entity-2="ent0004" data-link-type="dependency" data-source-line="38" id="lnk7"><path d="M1354.48,544.0483 C1343,556.5383 1331.98,571.2183 1325.16,586.8583 C1315.68,608.5983 1314.3487,630.0224 1315.0487,648.9924" fill="none" id="Warden-to-Cls" style="stroke:#5A5A5A;stroke-width:1;"/><polygon fill="#5A5A5A" points="1315.27,654.9883,1318.9354,645.8469,1315.0856,649.9917,1310.9408,646.1419,1315.27,654.9883" style="stroke:#5A5A5A;stroke-width:1;"/><text fill="#333333" font-family="sans-serif" font-size="13" lengthAdjust="spacing" textLength="46.1792" x="1326.16" y="600.4266">classify</text></g><!--link Cls to Ollama--><g class="link" data-entity-1="ent0004" data-entity-2="ent0005" data-link-type="dependency" data-source-line="39" id="lnk8"><path d="M1320.48,702.3283 C1324.89,732.5283 1331.8338,780.0611 1336.7738,813.9211" fill="none" id="Cls-to-Ollama" style="stroke:#5A5A5A;stroke-width:1;"/><polygon fill="#5A5A5A" points="1337.64,819.8583,1340.2988,810.3751,1336.9182,814.9107,1332.3826,811.53,1337.64,819.8583" style="stroke:#5A5A5A;stroke-width:1;"/><text fill="#333333" font-family="sans-serif" font-size="13" lengthAdjust="spacing" textLength="111.3506" x="1333.2872" y="766.8866">structured output</text><text fill="#333333" font-family="sans-serif" font-size="13" lengthAdjust="spacing" textLength="112.125" x="1332.9" y="782.1972">(fail-safe SEALED)</text></g><!--link Warden to Vault--><g class="link" data-entity-1="ent0003" data-entity-2="ent0006" data-link-type="dependency" data-source-line="40" id="lnk9"><path d="M1418.22,544.0683 C1433.42,575.3183 1451.7748,613.0631 1465.7348,641.7531" fill="none" id="Warden-to-Vault" style="stroke:#5A5A5A;stroke-width:1;"/><polygon fill="#5A5A5A" points="1468.36,647.1483,1468.019,637.3053,1466.1723,642.6523,1460.8254,640.8056,1468.36,647.1483" style="stroke:#5A5A5A;stroke-width:1;"/><text fill="#333333" font-family="sans-serif" font-size="13" lengthAdjust="spacing" textLength="94.7959" x="1447.19" y="600.4266">store / retrieve</text></g><!--link Warden to Emissary--><g class="link" data-entity-1="ent0003" data-entity-2="ent0011" data-link-type="dependency" data-source-line="59" id="lnk17"><path d="M1506.95,463.7783 C1554.94,440.3683 1594.69,408.3283 1565.16,372.9083 C1520.67,319.5383 1332.1109,301.1394 1214.5109,294.6394" fill="none" id="Warden-to-Emissary" style="stroke:#5A5A5A;stroke-width:1;"/><polygon fill="#5A5A5A" points="1208.52,294.3083,1217.2855,298.7989,1213.5124,294.5842,1217.727,290.8111,1208.52,294.3083" style="stroke:#5A5A5A;stroke-width:1;"/><text fill="#333333" font-family="sans-serif" font-size="13" lengthAdjust="spacing" textLength="87.9912" x="1595.279" y="386.4766">delegation VC</text><text fill="#333333" font-family="sans-serif" font-size="13" font-style="italic" lengthAdjust="spacing" textLength="125.9692" x="1576.29" y="401.7872">(scoped &#183; revocable)</text></g><!--link Emissary to Warden--><g class="link" data-entity-1="ent0011" data-entity-2="ent0003" data-link-type="dependency" data-source-line="60" id="lnk18"><path d="M1142.73,338.1783 C1156.59,360.5383 1175.35,386.3383 1197.16,404.9083 C1225.28,428.8383 1254.8161,445.9556 1287.7261,461.2056" fill="none" id="Emissary-to-Warden" style="stroke:#5A5A5A;stroke-width:1;stroke-dasharray:7,7;"/><polygon fill="#5A5A5A" points="1293.17,463.7283,1286.6859,456.315,1288.6334,461.6261,1283.3224,463.5736,1293.17,463.7283" style="stroke:#5A5A5A;stroke-width:1;"/><text fill="#333333" font-family="sans-serif" font-size="13" lengthAdjust="spacing" textLength="132.4185" x="1198.16" y="393.9766">challenge / response</text></g><!--link Emissary to Warden--><g class="link" data-entity-1="ent0011" data-entity-2="ent0003" data-link-type="dependency" data-source-line="63" id="lnk19"><path d="M1208.67,307.3083 C1252.84,319.1883 1303.97,339.2883 1340.16,372.9083 C1366.22,397.1083 1379.8947,429.2657 1388.3847,457.9057" fill="none" id="Emissary-to-Warden-1" style="stroke:#5A5A5A;stroke-width:1;"/><polygon fill="#5A5A5A" points="1390.09,463.6583,1391.3671,453.8926,1388.6689,458.8645,1383.697,456.1663,1390.09,463.6583" style="stroke:#5A5A5A;stroke-width:1;"/><text fill="#333333" font-family="sans-serif" font-size="13" lengthAdjust="spacing" textLength="163.5981" x="1365.15" y="386.4766">DIDComm v2: submission</text><text fill="#333333" font-family="sans-serif" font-size="13" font-style="italic" lengthAdjust="spacing" textLength="121.0181" x="1386.44" y="401.7872">(authcrypt &#183; sealed)</text></g><!--link Warden to Emissary--><g class="link" data-entity-1="ent0003" data-entity-2="ent0011" data-link-type="dependency" data-source-line="64" id="lnk20"><path d="M1517.3,492.9583 C1631.66,478.8883 1779.06,446.1583 1715.16,372.9083 C1682.38,335.3183 1373.6347,308.7261 1214.4247,297.3461" fill="none" id="Warden-to-Emissary-1" style="stroke:#5A5A5A;stroke-width:1;stroke-dasharray:7,7;"/><polygon fill="#5A5A5A" points="1208.44,296.9183,1217.1319,301.5498,1213.4273,297.2748,1217.7023,293.5701,1208.44,296.9183" style="stroke:#5A5A5A;stroke-width:1;"/><text fill="#333333" font-family="sans-serif" font-size="13" lengthAdjust="spacing" textLength="80.7041" x="1731.57" y="393.9766">receipt (thid)</text></g><!--link Verifier to Emissary--><g class="link" data-entity-1="ent0014" data-entity-2="ent0011" data-link-type="dependency" data-source-line="67" id="lnk21"><path d="M576.7301,111.3614 C690.3901,148.7114 896.5598,216.4455 1020.0098,257.0055" fill="none" id="Verifier-Emissary" style="stroke:#5A5A5A;stroke-width:1;"/><polygon fill="#5A5A5A" points="571.03,109.4883,578.3314,116.0981,575.7801,111.0492,580.8289,108.4979,571.03,109.4883" style="stroke:#5A5A5A;stroke-width:1;"/><polygon fill="#5A5A5A" points="1025.71,258.8783,1018.4082,252.2689,1020.9598,257.3176,1015.9111,259.8692,1025.71,258.8783" style="stroke:#5A5A5A;stroke-width:1;"/><text fill="#333333" font-family="sans-serif" font-size="13" lengthAdjust="spacing" textLength="85.9092" x="813.4603" y="172.5166">proof request</text><text fill="#333333" font-family="sans-serif" font-size="13" lengthAdjust="spacing" textLength="96.5098" x="808.16" y="187.8272">&#8644; presentation</text></g><!--link Emissary to Sovereign--><g class="link" data-entity-1="ent0011" data-entity-2="ent0013" data-link-type="dependency" data-source-line="68" id="lnk22"><path d="M1025.66,325.9183 C999.4,338.4283 971.78,354.1683 949.16,372.9083 C921.3,395.9883 900.228,423.6099 882.898,450.4099" fill="none" id="Emissary-to-Sovereign" style="stroke:#5A5A5A;stroke-width:1;"/><polygon fill="#5A5A5A" points="879.64,455.4483,887.886,450.0627,882.355,451.2496,881.1681,445.7187,879.64,455.4483" style="stroke:#5A5A5A;stroke-width:1;"/><text fill="#333333" font-family="sans-serif" font-size="13" lengthAdjust="spacing" textLength="30.291" x="950.16" y="393.9766">relay</text><text fill="#333333" font-family="sans-serif" font-size="13" font-style="italic" lengthAdjust="spacing" textLength="91.2349" x="984.5643" y="393.9766">(above ceiling)</text></g><!--link Sovereign to Emissary--><g class="link" data-entity-1="ent0013" data-entity-2="ent0011" data-link-type="dependency" data-source-line="69" id="lnk23"><path d="M814.76,455.4783 C798.78,429.1583 787.61,396.9883 806.16,372.9083 C832.96,338.1283 938.2495,316.0587 1020.0695,303.4987" fill="none" id="Sovereign-to-Emissary" style="stroke:#5A5A5A;stroke-width:1;stroke-dasharray:7,7;"/><polygon fill="#5A5A5A" points="1026,302.5883,1016.4973,300.0002,1021.0579,303.3469,1017.7111,307.9075,1026,302.5883" style="stroke:#5A5A5A;stroke-width:1;"/><text fill="#333333" font-family="sans-serif" font-size="13" lengthAdjust="spacing" textLength="97.7983" x="807.16" y="386.4766">PoH approval +</text><text fill="#333333" font-family="sans-serif" font-size="13" lengthAdjust="spacing" textLength="79.3965" x="816.3609" y="401.7872">presentation</text></g><!--link Verifier to Registry--><g class="link" data-entity-1="ent0014" data-entity-2="ent0015" data-link-type="dependency" data-source-line="72" id="lnk24"><path d="M423.64,110.0483 C382.75,127.9783 335.19,156.5783 310.16,198.9483 C260.8,282.5083 274.4185,396.8158 286.7085,458.0058" fill="none" id="Verifier-to-Registry" style="stroke:#5A5A5A;stroke-width:1;"/><polygon fill="#5A5A5A" points="287.89,463.8883,290.0394,454.2768,286.9054,458.9862,282.1961,455.8522,287.89,463.8883" style="stroke:#5A5A5A;stroke-width:1;"/><text fill="#333333" font-family="sans-serif" font-size="13" lengthAdjust="spacing" textLength="33.7251" x="311.16" y="294.9966">TRQP</text><text fill="#333333" font-family="sans-serif" font-size="13" font-style="italic" lengthAdjust="spacing" textLength="106.9009" x="348.9984" y="294.9966">is issuer trusted?</text></g><!--link Emissary to Registry--><g class="link" data-entity-1="ent0011" data-entity-2="ent0015" data-link-type="dependency" data-source-line="73" id="lnk25"><path d="M1025.74,300.6283 C926.95,312.4283 765.49,335.5283 630.16,372.9083 C544.02,396.6983 454.922,432.455 388.642,461.285" fill="none" id="Emissary-to-Registry" style="stroke:#5A5A5A;stroke-width:1;stroke-dasharray:7,7;"/><polygon fill="#5A5A5A" points="383.14,463.6783,392.9885,463.7565,387.725,461.6839,389.7976,456.4204,383.14,463.6783" style="stroke:#5A5A5A;stroke-width:1;"/><text fill="#333333" font-family="sans-serif" font-size="13" lengthAdjust="spacing" textLength="33.7251" x="631.16" y="393.9766">TRQP</text><text fill="#333333" font-family="sans-serif" font-size="13" font-style="italic" lengthAdjust="spacing" textLength="114.0229" x="668.9984" y="393.9766">autonomy ceiling?</text></g><!--link Registry to GK--><g class="link" data-entity-1="ent0015" data-entity-2="ent0016" data-link-type="dependency" data-source-line="74" id="lnk26"><path d="M302.46,543.8483 C307.39,564.8183 316.88,589.2883 335.16,603.8583 C350.34,615.9583 570.603,644.1416 718.723,661.9616" fill="none" id="Registry-to-GK" style="stroke:#5A5A5A;stroke-width:1;"/><polygon fill="#5A5A5A" points="724.68,662.6783,716.2222,657.6319,719.7158,662.081,715.2666,665.5746,724.68,662.6783" style="stroke:#5A5A5A;stroke-width:1;"/><text fill="#333333" font-family="sans-serif" font-size="13" lengthAdjust="spacing" textLength="62.5435" x="336.16" y="600.4266">testGroup</text><text fill="#333333" font-family="sans-serif" font-size="13" font-style="italic" lengthAdjust="spacing" textLength="52.7427" x="402.8167" y="600.4266">(groups)</text></g><!--link Warden to GK--><g class="link" data-entity-1="ent0003" data-entity-2="ent0016" data-link-type="dependency" data-source-line="77" id="lnk27"><path d="M1310.23,544.0283 C1263.71,563.6083 1205.49,586.7083 1152.16,603.8583 C1096.38,621.7883 1039.4134,636.4865 985.7334,648.9965" fill="none" id="Warden-to-GK" style="stroke:#5A5A5A;stroke-width:1;stroke-dasharray:7,7;"/><polygon fill="#5A5A5A" points="979.89,650.3583,989.563,652.2112,984.7595,649.2235,987.7473,644.42,979.89,650.3583" style="stroke:#5A5A5A;stroke-width:1;"/><text fill="#333333" font-family="sans-serif" font-size="13" lengthAdjust="spacing" textLength="44.9033" x="1201.3" y="600.4266">resolve</text></g><!--link Emissary to GK--><g class="link" data-entity-1="ent0011" data-entity-2="ent0016" data-link-type="dependency" data-source-line="78" id="lnk28"><path d="M1107.82,338.2883 C1093.75,399.2383 1062.04,505.6383 1001.16,575.8583 C979.93,600.3483 956.5759,618.4533 930.2459,635.1633" fill="none" id="Emissary-to-GK" style="stroke:#5A5A5A;stroke-width:1;stroke-dasharray:7,7;"/><polygon fill="#5A5A5A" points="925.18,638.3783,934.9222,636.933,929.4016,635.6991,930.6355,630.1785,925.18,638.3783" style="stroke:#5A5A5A;stroke-width:1;"/></g><!--link Sovereign to GK--><g class="link" data-entity-1="ent0013" data-entity-2="ent0016" data-link-type="dependency" data-source-line="79" id="lnk29"><path d="M852.16,552.0783 C852.16,579.2383 852.16,606.9683 852.16,632.6183" fill="none" id="Sovereign-to-GK" style="stroke:#5A5A5A;stroke-width:1;stroke-dasharray:7,7;"/><polygon fill="#5A5A5A" points="852.16,638.6183,856.16,629.6183,852.16,633.6183,848.16,629.6183,852.16,638.6183" style="stroke:#5A5A5A;stroke-width:1;"/></g><!--link Verifier to GK--><g class="link" data-entity-1="ent0014" data-entity-2="ent0016" data-link-type="dependency" data-source-line="80" id="lnk30"><path d="M492.85,124.3883 C487.69,187.0183 484.68,312.1083 529.16,404.9083 C580.87,512.7683 692.4721,590.8486 770.5121,635.4986" fill="none" id="Verifier-to-GK" style="stroke:#5A5A5A;stroke-width:1;stroke-dasharray:7,7;"/><polygon fill="#5A5A5A" points="775.72,638.4783,769.8946,630.5369,771.3801,635.9953,765.9218,637.4807,775.72,638.4783" style="stroke:#5A5A5A;stroke-width:1;"/></g><?plantuml-src rLVDRXit4BxhAGWNQ2Mv_edin8bGj51aoJ6S8AvjE1TVgDsHn7f5RaYk7BK8a4FHtekyIu4U-m1z23z9lo5NqgxIdEkiX9MMd1aEFyvyC-kLpqYy86dzr6IfkF_mKIHcbXjDsZlnDJ_C2gqIwPNH8bEQNAFnZRZ_-05VuVm2wl7X2_qstAtIkRHo9jnKfkPEwOaOoynHPMOaazk9DOLE-oOpLdmrV3xi3PzK958QooBpL_JEzp8rqJFW9nBSo5QaIXDManMFEfK9RL9ob8l7ZwlIKj_ouD5-PR1dhRahlNZSuy_cvD1eNmeSXAiYa6CZSaBYbuOGpp_PrAFXuQ3FCyQcPClHPxtUqT4GerMxlSFzW_t6-uhbLTHyndQuDcq_6Hprd_RhjX_r-5EpdKelHzBHPqqV3Pvkcku_wtKEdzTTp4oH_hUDmM1uCEnznhttbOX_yVhLG3IzBPodL4obJU-afTO3oe76yeotWg-SqPlkRWdfnDJC8g3hazjgjzz0X7IxVQFtziw8SWJgtt-Aopl0ucOIWpSwjyPJ0dR0H0B39bKK7W2ScfCBrgETklL-9frJOqKsYFGpLvz_dMLo9ddbjtUa3xfFHwAPcKHchRsze145eBGAYArBaXbsDkVakz7RGkcKtYtLWj8rJpMW55qIEplVyz82LnSX4LnQO9h7U2uk4gSTa4jyOR62ANnUO8dcMAfinyanYSj1x-NWk5Kt7PQBkiQIs1EMl5KqfreOlNbzyV8OSJGb0JX_0fp6jXuSaQv3AVhBiPHFSLfysYDGZOlXqNzv6g16b6Jffp4rc2ddf5t4gEfZIcgk9j1y1UiSKuuGGYeCbNWuHXnmSrbou4VXA06KyKoN5ckONfevMGBt2gVIBwGghH7UyBvfaaGweBGCOsVcdoAxKehG3fLrNfoJTIPawfHm7AE5u323CEJ8jzj2vlaDqYJ1EY5lyMnXo8dckNdHuX47qPZ7gnLgK5lA5bmdmQj-8RQvSdAE81pcAe6X_m786YxNO2BccGXBpLl6nTBRWXn23FisuxZHfKhTq0LD54WWXEwLEJq7Z5SNFvu3n7bdT_z6CpgekWcIGd11oQEnfLeZbXmOAcLEfAVRGAjiSPp9TvdCTmDRYUvXfzC1OV3luOq-FZq6pivaHMYzjWK6a3ip1bykmZ8dPvKp2IGFzPGociHsxU66VOKmbxaS2BVY_7MVpwxf4fCZj12KbkR0QPGHoa5ZfRMx-_sIVWEXJsMMaPv4vdKuIJHobOQr6B4Ysmz7jyJq0K6psXc3KzdPqjLvfrlPHi185dwQs4NkG-w6YiWObSgCK0raImaf2AFygBHLGIVG080hAVXXXz0oOSLtzIZgngmMPPBVwFlVVyKGscljGsIj4GuGhuct6rDBCA8ZHW8muOrdmbYkfUfmTWKuisHGvF0sjqULfJRJqvR4y8LKfnN63DIIrB1dva30f52pdIimNtQOFsncvafdhOHWDThC5ajqMMSbnkkSd8buTON70PumhVAPH7xbmrYZka6IJVHPTW7sVXYzL3K3uwwwqLjqWpMOGEJr0CF02llokQ7HTekHyTxC1E9xLMC4YjBnrOb0UuJ5lCAxA-fJy_gYZrI-VXNkf-5-7kw3S7_JHqcvwCF1ba3nvXu1bYYT4B_spsWsGXinLRdZjRY1Y04yiJAVXkVLcJ7x6Aj-XYBlOJSuT29dj6F6EuSTD8eALhlSU9Ja92OigALEU4Dm8Nfx_ziVuf-_mW_BjLQj82nwmzgco4O8kdQxhz1td17gClQIWEGzeMqFCS2lql6j1quky-rR_4FBmqtANBa2DMAnsy28O50R_m80?></g></svg>